# xmcd CD database file
#
# Track frame offsets:
#	150
#	30130
#	53585
#	83820
#	111845
#	140030
#
# Disc length: 2141 seconds
#
# Revision: 0
# Processed by: cddbd v1.4PL0 Copyright (c) Steve Scherf et al.
# Submitted via: CDex 1.50beta10
#
DISCID=42085b06
DTITLE=andre condouant - brother meeting
DYEAR=1900
DGENRE=Jazz
TTITLE0=brother meeting
TTITLE1=blues for wes
TTITLE2=short b.n
TTITLE3=poema
TTITLE4=ballad for annnie
TTITLE5=astracan
EXTD=
EXTT0=
EXTT1=
EXTT2=
EXTT3=
EXTT4=
EXTT5=
PLAYORDER=
